# xmcd CD database file
# Copyright (C) 1997 Ti Kan
#
# Track frame offsets:
#  182
#  11575
#  25562
#  37550
#  68507
#  79575
#  90645
#  107687
#  118267
#  130980
#  153675
#  167170
#  177767
#  201975
#  213825
#  228037
#
# Disc length: 3189 seconds
#
# Revision: 1
# Processed by: cddbd v1.4b41PL1 Copyright (c) Steve Scherf et al.
# Submitted via: CDWizzard Release:4.32
#
DISCID=be0c7310
DTITLE=YARDBIRDS - Yardmerizing, Birdmerizing
DYEAR=1900
DGENRE=
TTITLE0=Heart Full Of Soul
TTITLE1=Too Much Muonkey Business
TTITLE2=I'm A Man
TTITLE3=Smokestack
TTITLE4=Boom Boom
TTITLE5=Evil Hearted You
TTITLE6=Louise
TTITLE7=I Wish I Would
TTITLE8=Good Morning Little Schoolgirl
TTITLE9=Here 'This
TTITLE10=Still I'm Said
TTITLE11=Honey In Your Hips
TTITLE12=Five Long Years
TTITLE13=Got To Hurry
TTITLE14=Pretty Girl
TTITLE15=For Your Love
EXTD=
EXTT0=
EXTT1=
EXTT2=
EXTT3=
EXTT4=
EXTT5=
EXTT6=
EXTT7=
EXTT8=
EXTT9=
EXTT10=
EXTT11=
EXTT12=
EXTT13=
EXTT14=
EXTT15=
PLAYORDER=
